<svg xmlns="http://www.w3.org/2000/svg" xmlns:xlink="http://www.w3.org/1999/xlink" viewBox="0 0 91.36 91.36"><defs><style>.cls-1,.cls-3{fill:#fff;}.cls-2{fill:#0c2d63;}.cls-3{opacity:0.5;}.cls-3,.cls-4,.cls-6{isolation:isolate;}.cls-4{opacity:0.25;}.cls-5{fill:#1d70f7;}.cls-6{fill-rule:evenodd;opacity:0.2;fill:url(#Dégradé_sans_nom_6);}.cls-7{fill:url(#Dégradé_sans_nom_5);}</style><linearGradient id="Dégradé_sans_nom_6" x1="57.18" y1="64.18" x2="71.18" y2="50.18" gradientTransform="matrix(1, 0, 0, -1, 0, 89.36)" gradientUnits="userSpaceOnUse"><stop offset="0" stop-color="#060606"/><stop offset="1" stop-opacity="0"/></linearGradient><linearGradient id="Dégradé_sans_nom_5" x1="93.68" y1="-314.68" x2="93.68" y2="-258.68" gradientTransform="matrix(1, 0, 0, -1, -48, -243)" gradientUnits="userSpaceOnUse"><stop offset="0" stop-color="#fff" stop-opacity="0"/><stop offset="1" stop-color="#fff" stop-opacity="0.1"/></linearGradient></defs><title>fichier2</title><g id="Calque_2" data-name="Calque 2"><g id="Calque_1-2" data-name="Calque 1"><circle class="cls-1" cx="45.68" cy="45.68" r="45.68"/></g><g id="Calque_2-2" data-name="Calque 2"><path id="c" class="cls-2" d="M23.68,72.68v-58h30l14,14v44h-44Z"/><rect class="cls-3" x="23.68" y="14.68" width="30" height="1"/><rect class="cls-4" x="23.68" y="71.68" width="44" height="1"/><path class="cls-5" d="M67.68,28.68l-14-14v14Z"/><path class="cls-6" d="M53.68,28.68l14,14v-14Z"/><path class="cls-5" d="M34.68,33.68v1h22v-1Zm0,3v1h22v-1Zm0,3v1h11v-1Zm0,4v1h22v-1Zm0,3v1h19v-1Zm0,2v1h11v-1Zm0,3v1h22v-1Zm0,3v1h16v-1Z"/><path class="cls-7" d="M23.68,72.68v-58h30l14,14v44h-44Z"/></g></g></svg>