<svg xmlns="http://www.w3.org/2000/svg" xmlns:xlink="http://www.w3.org/1999/xlink" viewBox="0 0 91.36 91.36"><defs><style>.cls-1,.cls-4{fill:#fff;}.cls-2{fill:#245da8;}.cls-3{fill:url(#Dégradé_sans_nom_4);}.cls-4,.cls-5,.cls-6{fill-opacity:0.24;}.cls-4,.cls-5{fill-rule:evenodd;}</style><linearGradient id="Dégradé_sans_nom_4" x1="430.25" y1="-464.42" x2="430.25" y2="-422.4" gradientTransform="matrix(1, 0, 0, -1, -384.57, -394.59)" gradientUnits="userSpaceOnUse"><stop offset="0" stop-color="#4183d7"/><stop offset="1" stop-color="#5b94df"/></linearGradient></defs><title>folder2</title><g id="Calque_2" data-name="Calque 2"><g id="Calque_1-2" data-name="Calque 1"><circle class="cls-1" cx="45.68" cy="45.68" r="45.68"/></g><g id="Calque_2-2" data-name="Calque 2"><g id="layer1"><path id="rect4180" class="cls-2" d="M17.68,17.68v27a1,1,0,0,0,1,1h54a1,1,0,0,0,1-1v-22h0v-1h-28l-4-4Z"/><path id="rect4113" class="cls-3" d="M39.68,27.68l-4,4h-19v1h0v37h58v-37h0v-5Z"/><path id="path4224-1" class="cls-4" d="M16.68,31.68v1h20l3-5-4,4Z"/><path id="path4228-0" class="cls-5" d="M17.68,30.68v1h18l4-4-6,3Z"/><path id="path4151-2" class="cls-6" d="M16.68,68.68v1h58v-1h-58Z"/><path id="path4196" class="cls-4" d="M41.68,17.68l3,5h29v-1h-28Z"/></g></g></g></svg>